# xmcd
#
# Track frame offsets: 
#        150
#        31142
#        59545
#        79445
#        92194
#        120505
#        138570
#        152658
#        164705
#        179875
#        202895
#
# Disc length: 2958 seconds
#
# Revision: 2
# Processed by: cddbd v1.5.2PL0 Copyright (c) Steve Scherf et al.
# Submitted via: ExactAudioCopyFreeDBPlugin 1.0
#
DISCID=9d0b8c0b
DTITLE=David Bowie - Stage [CD1]
DYEAR=2017
DGENRE=Rock
TTITLE0=Warszawa
TTITLE1=''Heroes''
TTITLE2=What In The World
TTITLE3=Be My Wife
TTITLE4=The Jean Genie
TTITLE5=Blackout
TTITLE6=Sense Of Doubt
TTITLE7=Speed Of Life
TTITLE8=Breaking Glass
TTITLE9=Beauty And The Beast
TTITLE10=Fame
EXTD=
EXTT0=
EXTT1=
EXTT2=
EXTT3=
EXTT4=
EXTT5=
EXTT6=
EXTT7=
EXTT8=
EXTT9=
EXTT10=
PLAYORDER=
